HIERARCHY
ROOT root
{
	OFFSET	0	13.1	24.9
	CHANNELS 6  Xposition Yposition Zposition Xrotation Yrotation Zrotation
	JOINT spine_1
	{
		OFFSET	0	9.99999	0
		CHANNELS 3  Xrotation Yrotation Zrotation
		JOINT spine_2
		{
			OFFSET	0	112	-10
			CHANNELS 3  Xrotation Yrotation Zrotation
			JOINT spine_3
			{
				OFFSET	0	206.5	19.3
				CHANNELS 3  Xrotation Yrotation Zrotation
				JOINT spine_4
				{
					OFFSET	0	110.4	14.6
					CHANNELS 3  Xrotation Yrotation Zrotation
					JOINT neck_1
					{
						OFFSET	0	71.8	-50.3
						CHANNELS 3  Xrotation Yrotation Zrotation
						JOINT neck_2
						{
							OFFSET	0	86.2	-25.8
							CHANNELS 3  Xrotation Yrotation Zrotation
							JOINT head_ee
							{
								OFFSET	0	179.8	-8.7
								CHANNELS 3  Xrotation Yrotation Zrotation
								End Site
								{
									OFFSET	1	0	0
								}
							}
						}
					}
					JOINT left_clavicle
					{
						OFFSET	-43.2	22.4	-70.8
						CHANNELS 3  Xrotation Yrotation Zrotation
						JOINT left_shoulder
						{
							OFFSET	-93.9	-5.79999	48.7
							CHANNELS 3  Xrotation Yrotation Zrotation
							JOINT left_elbow
							{
								OFFSET	-291.4	-30.8	15.2
								CHANNELS 3  Xrotation Yrotation Zrotation
								JOINT left_lowarm_twist
								{
									OFFSET	-110.7	-3.89999	13.6
									CHANNELS 3  Xrotation Yrotation Zrotation
									JOINT left_hand
									{
										OFFSET	-110.7	-3.89999	13.6
										CHANNELS 3  Xrotation Yrotation Zrotation
										JOINT left_ee
										{
											OFFSET	-80.8	-5.10001	12.1
											CHANNELS 3  Xrotation Yrotation Zrotation
											End Site
											{
												OFFSET	1	0	0
											}
										}
									}
								}
							}
						}
					}
					JOINT right_clavicle
					{
						OFFSET	43.2	22.4	-70.8
						CHANNELS 3  Xrotation Yrotation Zrotation
						JOINT right_shoulder
						{
							OFFSET	93.9	-5.79999	48.7
							CHANNELS 3  Xrotation Yrotation Zrotation
							JOINT right_elbow
							{
								OFFSET	291.4	-30.8	15.2
								CHANNELS 3  Xrotation Yrotation Zrotation
								JOINT right_lowarm_twist
								{
									OFFSET	110.7	-3.89999	13.6
									CHANNELS 3  Xrotation Yrotation Zrotation
									JOINT right_hand
									{
										OFFSET	110.7	-3.89999	13.6
										CHANNELS 3  Xrotation Yrotation Zrotation
										JOINT right_ee
										{
											OFFSET	80.8	-5.10001	12.1
											CHANNELS 3  Xrotation Yrotation Zrotation
											End Site
											{
												OFFSET	1	0	0
											}
										}
									}
								}
							}
						}
					}
				}
			}
		}
	}
	JOINT left_hip
	{
		OFFSET	-82.8	-127.5	0.300001
		CHANNELS 3  Xrotation Yrotation Zrotation
		JOINT left_knee
		{
			OFFSET	-28.2	-396.7	2.2
			CHANNELS 3  Xrotation Yrotation Zrotation
			JOINT left_ankle
			{
				OFFSET	-11.7	-411.3	35.4
				CHANNELS 3  Xrotation Yrotation Zrotation
				JOINT left_toes
				{
					OFFSET	0	-60	-88.6
					CHANNELS 3  Xrotation Yrotation Zrotation
					JOINT left_foot_ee
					{
						OFFSET	-22.5	-16.5	-42.2
						CHANNELS 3  Xrotation Yrotation Zrotation
						End Site
						{
							OFFSET	1	0	0
						}
					}
				}
			}
		}
	}
	JOINT right_hip
	{
		OFFSET	82.8	-127.5	0.300001
		CHANNELS 3  Xrotation Yrotation Zrotation
		JOINT right_knee
		{
			OFFSET	28.2	-396.7	2.2
			CHANNELS 3  Xrotation Yrotation Zrotation
			JOINT right_ankle
			{
				OFFSET	11.7	-411.3	35.4
				CHANNELS 3  Xrotation Yrotation Zrotation
				JOINT right_toes
				{
					OFFSET	0	-60	-88.6
					CHANNELS 3  Xrotation Yrotation Zrotation
					JOINT right_foot_ee
					{
						OFFSET	22.5	-16.5	-42.2
						CHANNELS 3  Xrotation Yrotation Zrotation
						End Site
						{
							OFFSET	1	0	0
						}
					}
				}
			}
		}
	}
}
MOTION
Frames: 7
Frame Time: 0.02
3413.78420836 704.021 -1528.43278434 27.7184358907 84.4942125161 -27.6094878888 1.05357 0.357668 0.155527 1.05352 0.347046 0.177972 1.05461 0.306386 0.241336 1.05469 0.340655 0.189919 -18.9467 1.87176 -1.1127 -18.9665 4.19053 -0.289834 -0.0 0.0 -0.0 1.2132 25.1384 4.49652 -10.873 -32.7477 68.1672 0.921202 -24.5286 0.200257 -4.023 -0.159002 0.488931 1.2794 -10.2332 4.29051 -0.0 0.0 -0.0 11.558 -0.669898 -22.8658 8.40434 -33.6669 -56.2796 0.379089 10.6359 -0.035287 -64.0469 5.78991 -5.20924 -5.12245 -28.879 16.565 0.0 0.0 0.0 17.0162 14.7517 -12.8487 -34.1959 -0.139379 5.16901 32.8376 6.3242 -4.18389 3.72691 -0.0 -0.0 -0.0 0.0 -0.0 -12.3454 13.7634 -3.65321 -8.6673 -0.258652 -1.30375 39.0551 -14.3215 4.83732 -0.829417 0.0 0.0 0.0 0.0 0.0 
3415.17678845 704.021 -1532.43135332 22.1205395963 83.1936506642 -21.9795381077 1.05357 0.357668 0.155527 1.05352 0.347046 0.177972 1.05461 0.306386 0.241336 1.05469 0.340655 0.189919 -18.9467 1.87176 -1.1127 -18.9665 4.19053 -0.289834 -0.0 0.0 -0.0 1.2132 25.1384 4.49652 -10.873 -32.7477 68.1672 0.921202 -24.5286 0.200257 -4.023 -0.159002 0.488931 1.2794 -10.2332 4.29051 -0.0 0.0 -0.0 11.558 -0.669898 -22.8658 8.40434 -33.6669 -56.2796 0.379089 10.6359 -0.035287 -64.0469 5.78991 -5.20924 -5.12245 -28.879 16.565 0.0 0.0 0.0 17.0162 14.7517 -12.8487 -34.1959 -0.139379 5.16901 32.8376 6.3242 -4.18389 3.72691 -0.0 -0.0 -0.0 0.0 -0.0 -12.3454 13.7634 -3.65321 -8.6673 -0.258652 -1.30375 39.0551 -14.3215 4.83732 -0.829417 0.0 0.0 0.0 0.0 0.0 
3405.18023738 704.6 -1519.1505224 61.5607400248 86.7159272223 -61.5212882636 0.840711 0.388587 0.264078 0.840673 0.370996 0.28827 0.842575 0.307386 0.355318 0.842579 0.359644 0.302313 -19.614 3.25096 -0.337642 -19.6713 6.43902 1.02289 -0.0 0.0 -0.0 0.958437 23.8833 4.06005 -12.2345 -29.7806 69.4628 0.7006 -19.1397 0.11812 -4.24066 -0.168581 0.515057 1.29858 -10.3546 4.36787 -0.0 0.0 -0.0 11.6874 1.50127 -23.2965 10.7237 -33.272 -57.6202 0.50321 13.9974 -0.0617751 -61.7293 5.49857 -5.15175 -4.82339 -28.857 14.8921 0.0 0.0 0.0 18.7147 11.3363 -10.8715 -34.9969 -0.179524 5.28533 29.8839 8.82679 -3.87984 1.13952 -0.0 -0.0 -0.0 0.0 -0.0 -13.7415 15.1006 -3.24604 -6.71355 -0.217631 -1.00676 35.204 -14.5779 4.47323 -2.38545 0.0 0.0 0.0 0.0 0.0 
3391.62055429 702.804 -1503.57436301 132.856551579 85.3132349434 -132.952245747 0.700027 0.359095 0.310633 0.700016 0.338601 0.332854 0.702029 0.265927 0.393352 0.70196 0.324711 0.346418 -19.964 2.96063 -0.693508 -20.0154 6.0602 0.590715 -0.0 0.0 -0.0 0.982103 23.9751 4.09949 -13.8523 -28.7304 69.8033 0.485799 -13.5312 0.0576326 -4.39078 -0.175245 0.533055 1.3067 -8.89312 5.05214 -0.0 0.0 -0.0 11.8204 3.77312 -23.7136 13.2897 -32.6844 -58.6117 0.563855 15.6061 -0.0772699 -59.9419 5.27553 -5.09937 -4.83198 -28.9544 14.8708 0.0 0.0 0.0 20.9333 10.4485 -10.2455 -34.1022 -0.134792 5.15538 27.833 10.75 -3.66268 -1.33162 0.0 0.0 -0.0 0.0 -0.0 -15.528 14.6164 -2.98447 -5.94906 -0.198826 -0.890948 33.7456 -17.109 4.36033 -2.02683 0.0 0.0 0.0 0.0 0.0 
3383.73855078 698.347 -1489.8651987 152.840663367 82.3359886952 -153.048916506 0.575033 0.31227 0.406478 0.575079 0.285772 0.425524 0.57727 0.194748 0.47414 0.577056 0.267185 0.437434 -18.5731 3.65233 -1.68971 -18.646 7.93042 -0.137199 -0.0 0.0 -0.0 1.12184 23.1418 4.22543 -15.6427 -27.1194 70.0909 0.270927 -7.64412 0.0180997 -4.30554 -0.171456 0.522838 1.36461 -8.7277 5.51567 -0.0 0.0 -0.0 11.4064 7.07917 -22.9157 13.7667 -28.4929 -63.3808 0.784176 21.229 -0.146962 -60.2301 5.31138 -5.10829 -5.39935 -28.984 18.0654 0.0 0.0 0.0 24.8936 8.67964 -9.51173 -30.6735 0.0176811 4.65143 23.284 12.3834 -3.14411 -2.91148 0.0 0.0 -0.0 0.0 -0.0 -18.4536 15.3478 -2.42637 -1.08715 -0.0432348 -0.161232 34.1893 -16.4567 4.39622 -2.46803 0.0 0.0 0.0 0.0 0.0 
3383.50448497 698.347 -1486.55182038 155.862355196 81.4387448723 -156.101045504 0.575033 0.31227 0.406478 0.575079 0.285772 0.425524 0.57727 0.194748 0.47414 0.577056 0.267185 0.437434 -18.5731 3.65233 -1.68971 -18.646 7.93042 -0.137199 -0.0 0.0 -0.0 1.12184 23.1418 4.22543 -15.6427 -27.1194 70.0909 0.270927 -7.64412 0.0180997 -4.30554 -0.171456 0.522838 1.36461 -8.7277 5.51567 -0.0 0.0 -0.0 11.4064 7.07917 -22.9157 13.7667 -28.4929 -63.3808 0.784176 21.229 -0.146962 -60.2301 5.31138 -5.10829 -5.39935 -28.984 18.0654 0.0 0.0 0.0 24.8936 8.67964 -9.51173 -30.6735 0.0176811 4.65143 23.284 12.3834 -3.14411 -2.91148 0.0 0.0 -0.0 0.0 -0.0 -18.4536 15.3478 -2.42637 -1.08715 -0.0432348 -0.161232 34.1893 -16.4567 4.39622 -2.46803 0.0 0.0 0.0 0.0 0.0 
3380.85438847 696.492 -1476.56351461 163.140128193 79.7192432457 -163.395799398 0.55101 0.221566 0.468563 0.551112 0.191302 0.481711 0.552793 0.090717 0.510306 0.55247 0.170171 0.489575 -19.6335 3.54507 -0.30363 -19.7013 6.98828 1.17757 -0.0 0.0 -0.0 1.03262 23.0464 4.09479 -16.3294 -26.0745 71.1744 0.175725 -4.97512 0.00763414 -4.60655 -0.184908 0.558895 1.08392 -6.3364 4.63111 -0.0 0.0 -0.0 11.6875 8.45901 -23.562 18.3112 -30.3731 -62.6076 0.845584 22.7275 -0.169946 -59.5191 5.22301 -5.08596 -4.89689 -28.0842 15.8621 0.0 0.0 0.0 26.4425 8.0351 -8.98721 -28.242 0.107378 4.28908 21.888 14.7228 -2.98934 -4.20325 0.0 0.0 -0.0 0.0 -0.0 -18.043 14.7872 -2.18203 -1.31233 -0.0518064 -0.194727 33.4673 -15.8799 4.31401 -2.64922 0.0 0.0 0.0 0.0 0.0 
